<?xml version="1.0" encoding="UTF-8"?>
<svg width="134px" height="134px" viewBox="0 0 134 134" version="1.1" xmlns="http://www.w3.org/2000/svg" xmlns:xlink="http://www.w3.org/1999/xlink">
    <g id="Page-1" stroke="none" stroke-width="1" fill="none" fill-rule="evenodd">
        <g id="app.kangaroo.icon.transaction" transform="translate(3.000000, 3.000000)" stroke-width="5">
            <circle id="Oval" stroke="#1C3988" fill-rule="nonzero" cx="64" cy="64" r="64"></circle>
            <g id="Group" transform="translate(12.487805, 39.024390)" stroke="#F9A602">
                <g>
                    <path d="M71.617561,42.4897561 L62.017561,34.4257561" id="Path"></path>
                    <path d="M62.7949268,47.3771707 L54.9681951,40.9771707" id="Path"></path>
                    <path d="M20.0616585,30.4515122 C22.846439,38.4577561 45.2760976,55.7892683 45.2760976,55.7892683 C50.684878,60.3660488 55.5785366,53.3806829 51.1281951,49.6156098 L47.7190244,46.3063415" id="Path"></path>
                    <path d="M47.7174634,46.3079024 L56.9927805,54.3625366 C58.146697,55.5786673 59.8803093,56.0537457 61.4929962,55.595774 C63.1056831,55.1378024 64.3308581,53.8224859 64.6733796,52.181396 C65.0159011,50.5403061 64.4191484,48.8447244 63.1242927,47.7799024 L65.4657561,49.7592195 C70.1299512,53.7069268 76.2692683,46.4265366 71.617561,42.4897561 L71.9781463,42.8019512 C76.6439024,46.7496585 82.7816585,39.4692683 78.1299512,35.5324878 L55.169561,16.8039024 C55.169561,16.8039024 50.7395122,18.5022439 49.027122,18.0120976 C49.027122,18.0120976 42.4163902,28.158439 37.5820488,24.6275122 C32.7477073,21.0965854 37.5820488,6.09873171 51.1625366,3.9555122 C51.1625366,3.9555122 57.276878,2.21190244 72.252878,9.93092683 L77.8052683,8.2497561" id="Path"></path>
                    <polygon id="Rectangle" transform="translate(14.100504, 20.464067) rotate(-74.188000) translate(-14.100504, -20.464067) " points="-3.41208101 12.0067009 31.6130897 12.0067009 31.6130897 28.9214326 -3.41208101 28.9214326"></polygon>
                    <polygon id="Rectangle" transform="translate(90.655183, 21.364532) rotate(-15.812000) translate(-90.655183, -21.364532) " points="82.1978167 3.85194629 99.1125484 3.85194629 99.1125484 38.877117 82.1978167 38.877117"></polygon>
                    <path d="M26.364878,7.83921951 C26.364878,7.83921951 27.1531707,6.68565854 44.414439,6.38282927" id="Path"></path>
                    <path d="M79.6097561,37.5633171 C79.6097561,37.5633171 83.8883902,38.401561 86.1330732,36.4612683" id="Path"></path>
                </g>
            </g>
        </g>
    </g>
</svg>